Coordinates
version=1
nRows=12
nColumns=24
inDegrees=yes

Units are S.I. units (second, meters, Newtons, ...)
Angles are in degrees.

endheader
time	pelvis_tilt	pelvis_list	pelvis_rotation	pelvis_tx	pelvis_ty	pelvis_tz	hip_flexion_r	hip_adduction_r	hip_rotation_r	knee_angle_r	ankle_angle_r	subtalar_angle_r	mtp_angle_r	hip_flexion_l	hip_adduction_l	hip_rotation_l	knee_angle_l	ankle_angle_l	subtalar_angle_l	mtp_angle_l	lumbar_extension	lumbar_bending	lumbar_rotation
      0.62500000	      0.21182305	      8.37102108	      1.01211101	     -0.83786419	      1.04865288	      0.30004311	     24.35109389	     -4.40820477	    -12.23021479	      1.83703999	     10.91067915	      4.02749501	      0.19748135	    -23.41510927	     13.36473653	     -0.14122652	      0.54544281	     -1.27642572	      1.04591124	      0.38595121	      3.04706302	     -7.00851540	     -2.56759129
      0.62916667	      0.22810454	      8.35709637	      1.09066339	     -0.83134670	      1.04841776	      0.29979466	     24.23718934	     -4.38399295	    -12.10311972	      1.46438766	     10.96971325	      3.98225209	      0.20314365	    -23.56569271	     13.30119490	     -0.08681313	      0.11478088	     -1.38775403	      0.99484875	      0.40338216	      3.11344056	     -6.92810480	     -2.59570557
      0.63333333	      0.28492692	      8.27873240	      1.13881337	     -0.82464399	      1.04823716	      0.29959036	     24.02966514	     -4.28018440	    -11.78598163	      1.12898480	     11.36932505	      3.65093190	      0.22648859	    -23.78031708	     13.17312360	      0.02009501	     -0.24332253	     -1.94782623	      0.81673225	      0.48422152	      3.07544374	     -6.76935170	     -2.71880597
      0.63750000	      0.39705517	      8.23829126	      1.13077604	     -0.81811477	      1.04807776	      0.29947580	     23.78312156	     -4.19884543	    -11.30459753	      0.78355512	     11.40361651	      3.16381269	      0.25752721	    -24.01493363	     13.10395310	      0.00824133	     -0.65034937	     -2.45195858	      0.50135873	      0.64586015	      2.98842746	     -6.71094644	     -2.85131594
      0.64166667	      0.40730826	      8.21348150	      1.21973836	     -0.81145639	      1.04789036	      0.29920126	     23.64617330	     -4.17554637	    -11.14659832	      0.38256138	     11.38062553	      3.12879756	      0.26188911	    -24.10696636	     13.02127835	      0.05056698	     -1.17939407	     -2.53513685	      0.48258876	      0.66666754	      3.07056902	     -6.63629463	     -2.86094303
      0.64583333	      0.42255667	      8.18154352	      1.32411043	     -0.80478158	      1.04772684	      0.29892970	     23.48198695	     -4.15295147	    -10.93040302	     -0.00054431	     11.37918851	      3.05892293	      0.26756877	    -24.18786917	     12.92126683	      0.07329172	     -1.72967992	     -2.72111703	      0.46785504	      0.69219486	      3.14424794	     -6.53416954	     -2.88084815
      0.65000000	      0.55202131	      8.08412409	      1.23899490	     -0.79806899	      1.04760855	      0.29911082	     23.12870489	     -3.96691120	     -9.93263956	     -0.20772131	     11.16763749	      1.66774668	      0.34207278	    -24.38565521	     12.79419523	     -0.09205145	     -2.19290845	     -3.49250943	      0.25633435	      1.18925181	      2.99232446	     -6.38951281	     -3.03111571
      0.65416667	      0.53836856	      7.99379723	      1.37188703	     -0.79116581	      1.04750063	      0.29889314	     22.93532968	     -3.88796625	     -9.71024986	     -0.51392011	     11.10373326	      1.56480576	      0.36390831	    -24.39348952	     12.60930015	     -0.14566250	     -2.80738678	     -3.91487055	      0.36301263	      1.31454121	      3.07971366	     -6.27707154	     -3.04079621
      0.65833333	      0.56979728	      7.96187347	      1.44198138	     -0.78451031	      1.04739434	      0.29863901	     22.75494228	     -3.86400991	     -9.54525094	     -0.90124467	     11.03815677	      1.54769897	      0.36892361	    -24.42202384	     12.51799355	     -0.15434845	     -3.46270120	     -4.06079816	      0.35604732	      1.34080530	      3.17368146	     -6.17667618	     -3.05155489
      0.66250000	      0.54278858	      7.78983326	      1.52065791	     -0.77740964	      1.04730038	      0.29855870	     22.52781847	     -3.67444251	     -9.17705654	     -1.10346667	     10.67819903	      1.22798368	      0.39231379	    -24.37392212	     12.25884103	     -0.43084129	     -4.10627424	     -4.89374834	      0.45577949	      1.49243658	      3.17286490	     -5.94363719	     -3.12377524
      0.66666667	      0.69895172	      7.67102871	      1.43353472	     -0.77068690	      1.04733948	      0.29881710	     22.12810233	     -3.47548083	     -8.30734507	     -1.27031507	     10.12928528	     -0.11379268	      0.51202915	    -24.47286038	     12.09160909	     -0.76814546	     -4.79656499	     -5.33523143	      0.61403409	      2.24984324	      3.20558500	     -5.78406325	     -3.17448360
      0.67083333	      0.70725640	      7.51799124	      1.51341910	     -0.76371496	      1.04735502	      0.29867795	     21.89428966	     -3.32264270	     -8.14407113	     -1.51403161	      9.70436782	     -0.24336434	      0.59682600	    -24.39830416	     11.84865641	     -1.01295196	     -5.55509938	     -5.94070260	      0.78986739	      2.72977652	      3.32384760	     -5.57645896	     -3.17913773
